<?xml version="1.0" encoding="utf-8"?>
<!-- Generator: Adobe Illustrator 26.0.0, SVG Export Plug-In . SVG Version: 6.00 Build 0)  -->
<svg version="1.1" id="Capa_1" xmlns="http://www.w3.org/2000/svg" xmlns:xlink="http://www.w3.org/1999/xlink" x="0px" y="0px"
	 viewBox="0 0 1920 1080" style="enable-background:new 0 0 1920 1080;" xml:space="preserve">
<g>
	<path d="M1094.16,604.71c-1.59-0.56-2.89-0.97-4.16-1.47c-9.4-3.73-15.03-10.71-16.57-20.56c-1.58-10.13,0.92-19.11,9.3-25.82
		c8.3-6.65,18.11-8.77,28.37-9.13c8.24-0.29,16.5-0.22,24.74-0.05c2.94,0.06,3.78-0.77,3.77-3.73c-0.11-25.87,0-51.74-0.14-77.61
		c-0.02-3.38,0.8-4.51,4.31-4.35c6.48,0.3,13,0.24,19.49,0.01c2.98-0.11,3.72,0.81,3.7,3.73c-0.11,25.74-0.01,51.49-0.14,77.23
		c-0.02,3.25,0.72,4.24,4.09,4.18c12.74-0.21,25.49-0.01,38.24-0.14c2.72-0.03,3.75,0.6,3.62,3.52c-0.24,5.36-0.26,10.75,0.01,16.11
		c0.15,3-1.02,3.44-3.65,3.41c-12.5-0.13-25,0.06-37.49-0.13c-3.36-0.05-4.4,0.76-4.38,4.27c0.15,25.74,0.03,51.49,0.15,77.23
		c0.02,3.19-0.65,4.25-4.08,4.2c-16.62-0.21-33.24-0.01-49.86-0.17c-8.45-0.08-16.65-1.67-24.08-6
		c-8.75-5.11-13.35-12.57-12.53-22.91c0.8-9.95,6.13-16.61,15.15-20.51c0.57-0.25,1.13-0.51,1.69-0.79
		C1093.82,605.17,1093.88,605.04,1094.16,604.71z M1125.31,592.64c4.73,0,8.6-0.03,12.47,0.02c1.46,0.02,2.33-0.29,2.32-2.03
		c-0.06-6.37,0-12.73-0.04-19.1c-0.01-1.41-0.28-2.96-2.13-2.91c-8.97,0.23-18.01-1.03-26.89,0.84c-6.15,1.29-9.67,5.63-9.78,11.17
		c-0.11,5.48,3.42,9.56,9.64,11.24C1115.93,593.22,1121.08,592.37,1125.31,592.64z M1126.75,634.57c0,0.02,0,0.04,0,0.06
		c3.61,0,7.23-0.05,10.84,0.02c1.61,0.03,2.55-0.26,2.52-2.21c-0.09-5.98-0.06-11.96-0.02-17.94c0.01-1.56-0.55-2.29-2.16-2.25
		c-7.59,0.16-15.21-0.48-22.78,0.35c-6.77,0.74-10.62,5.06-10.49,11.32c0.12,6.02,4.47,10.23,11.25,10.61
		C1119.51,634.74,1123.14,634.57,1126.75,634.57z"/>
	<path d="M930.08,567.88c2.07-2.59,3.63-4.82,5.45-6.79c10.77-11.65,24.69-14.96,39.82-14.67c11.47,0.23,22.27,2.84,31.55,10.08
		c9.61,7.49,15.17,17.46,15.87,29.45c1.31,22.34,0.3,44.72,0.54,67.09c0.02,2.02-0.84,2.52-2.7,2.5
		c-7.37-0.07-14.75-0.16-22.12,0.03c-2.88,0.07-2.51-1.61-2.51-3.35c0-19.37-0.01-38.74,0.02-58.11c0-3.14-0.24-6.24-1.1-9.27
		c-3.06-10.69-13-16.9-24.68-15.46c-10.8,1.33-18.35,9.57-18.52,21.03c-0.26,18.12-0.11,36.24-0.13,54.36c0,2.75-0.11,5.5,0.03,8.25
		c0.1,2.03-0.73,2.55-2.62,2.53c-7.37-0.08-14.75-0.09-22.12,0.01c-1.98,0.03-2.6-0.69-2.58-2.6c0.27-22.24-0.51-44.49,0.45-66.72
		c0.24-5.53,2.18-10.69,4.34-16.25c-7.6,0-14.8,0.03-22-0.01c-5.36-0.03-4.69,0.68-4.69-4.87c-0.03-25.74-0.06-51.49,0.05-77.23
		c0.01-3.01-0.65-4.14-3.89-4.05c-8.37,0.23-16.75-0.01-25.12,0.13c-2.6,0.04-3.48-0.73-3.38-3.37c0.19-5.12,0.15-10.25,0.01-15.37
		c-0.06-2.29,0.43-3.31,3.05-3.3c28.74,0.09,57.49,0.08,86.23,0.01c2.3-0.01,3.04,0.67,2.98,2.98c-0.15,5.37-0.15,10.75,0,16.12
		c0.07,2.37-0.82,2.95-3.04,2.92c-8.75-0.1-17.5,0.02-26.24-0.08c-2.33-0.03-3.27,0.53-3.26,3.11c0.09,26.37,0.06,52.74,0.07,79.11
		C929.84,566.45,929.94,566.82,930.08,567.88z"/>
	<path d="M1261.47,515.73c0-16.75,0.07-33.5-0.07-50.24c-0.02-2.88,0.84-3.49,3.57-3.48c25.87,0.1,51.74,0.09,77.62,0.01
		c2.51-0.01,3.55,0.54,3.44,3.28c-0.21,4.99-0.2,10,0,14.99c0.1,2.71-0.92,3.35-3.46,3.34c-16.62-0.09-33.25,0.03-49.87-0.12
		c-3.09-0.03-4.17,0.79-3.99,3.95c0.26,4.61,0.22,9.25,0.01,13.87c-0.13,2.91,0.77,3.84,3.77,3.81c14.5-0.15,29,0.04,43.49-0.15
		c3.41-0.04,4.6,0.83,4.37,4.33c-0.3,4.48-0.23,9-0.02,13.49c0.14,2.86-0.61,3.84-3.67,3.8c-14.5-0.17-29,0.07-43.49-0.17
		c-3.77-0.06-4.68,1.13-4.46,4.63c0.29,4.61,0.22,9.25,0.01,13.87c-0.13,2.81,0.78,3.59,3.59,3.57c16.75-0.13,33.5-0.09,50.24-0.05
		c5.88,0.01,5-0.77,5.07,5.24c0.05,4.5-0.08,9,0.05,13.5c0.06,2.03-0.44,2.83-2.67,2.83c-27-0.07-53.99-0.09-80.99,0.02
		c-2.84,0.01-2.54-1.54-2.54-3.32C1261.48,549.73,1261.47,532.73,1261.47,515.73z"/>
	<path d="M795.3,516.1c0-16.74,0.09-33.48-0.08-50.22c-0.03-3.2,0.95-3.99,4.01-3.89c6.61,0.23,13.25,0.25,19.86-0.01
		c3.11-0.12,3.64,1,3.63,3.8c-0.1,25.86,0.01,51.72-0.14,77.58c-0.02,3.39,0.81,4.38,4.28,4.32c12.86-0.22,25.73-0.02,38.6-0.14
		c2.58-0.02,3.69,0.35,3.68,3.38c-0.12,33.73-0.1,67.46-0.03,101.19c0.01,2.48-0.45,3.54-3.23,3.46c-6.87-0.2-13.74-0.21-20.61,0.01
		c-2.98,0.1-3.74-0.82-3.72-3.75c0.11-25.61-0.01-51.22,0.15-76.83c0.02-3.56-0.79-4.64-4.48-4.57
		c-12.49,0.25-24.99-0.04-37.47,0.18c-3.71,0.07-4.56-1.15-4.52-4.67C795.39,549.33,795.3,532.71,795.3,516.1z"/>
	<path d="M673.47,516.21c0-16.87,0.06-33.74-0.06-50.61c-0.02-2.68,0.5-3.72,3.45-3.61c6.74,0.23,13.5,0.23,20.24,0
		c3.04-0.1,3.74,0.95,3.73,3.81c-0.09,25.49-0.05,50.98-0.05,76.47c0,4.77,0.01,4.78,4.91,4.78c12.5,0,24.99,0.08,37.49-0.06
		c2.91-0.03,3.82,0.75,3.81,3.77c-0.11,33.74-0.1,67.48-0.01,101.22c0.01,2.68-0.5,3.72-3.45,3.61c-6.74-0.23-13.5-0.23-20.24,0
		c-3.04,0.1-3.74-0.95-3.73-3.81c0.09-25.49,0.05-50.98,0.05-76.48c0-4.77-0.01-4.78-4.91-4.78c-12.5,0-24.99-0.08-37.49,0.06
		c-2.91,0.03-3.84-0.74-3.82-3.77C673.55,549.95,673.47,533.08,673.47,516.21z"/>
	<path d="M1046.29,461.96c14.12,0,28.23,0.06,42.34-0.06c2.69-0.02,3.8,0.59,3.67,3.5c-0.22,5.11-0.17,10.24-0.02,15.36
		c0.07,2.47-0.81,3.21-3.23,3.18c-8.49-0.12-16.99,0.09-25.48-0.11c-3.11-0.07-3.99,0.82-3.97,3.95
		c0.12,26.11,0.02,52.21,0.14,78.32c0.01,3.05-0.66,4.08-3.86,3.96c-6.61-0.26-13.24-0.25-19.86,0c-3.09,0.12-3.7-1.02-3.69-3.83
		c0.09-25.73,0.05-51.46,0.05-77.2c0-5.13-0.01-5.13-4.96-5.13c-7.99,0-15.99-0.09-23.98,0.05c-2.62,0.05-3.49-0.8-3.4-3.4
		c0.17-4.87,0.28-9.76-0.03-14.61c-0.23-3.51,1.17-4.08,4.3-4.05C1018.31,462.05,1032.3,461.96,1046.29,461.96z"/>
</g>
</svg>
